<svg id="Layer_1" data-name="Layer 1" xmlns="http://www.w3.org/2000/svg" viewBox="0 0 106.43 36.74"><defs><style>.cls-1{fill:#616c74;}.cls-1,.cls-3,.cls-4{stroke:#37839f;}.cls-1,.cls-2,.cls-3,.cls-4{stroke-width:0.5px;}.cls-2,.cls-5{fill:#3783a0;}.cls-2{stroke:#606c74;}.cls-3{fill:#5f6b73;}.cls-4,.cls-6{fill:#626e75;}.cls-5{font-size:14.37px;}.cls-5,.cls-6{font-family:Sylfaen, Sylfaen;}.cls-6{font-size:7.78px;}</style></defs><title>OSPS_Logo</title><path class="cls-1" d="M663.72,378.91c-6.88-10-22.3-8.32-27.31,0-1.53-2.6-.49-6.26,2.57-9,5-4.52,13.94-5.16,20-1.45C663.28,371,665.11,375.1,663.72,378.91Z" transform="translate(-626.72 -365.75)"/><path class="cls-2" d="M627.47,389c6.07,9.72,21.82,9.51,27.48.25,1.4,3,.31,6.64-2.81,9.34-4.84,4.18-13.17,4.91-19.18,1.67C628.28,397.7,626.42,394,627.47,389Z" transform="translate(-626.72 -365.75)"/><path class="cls-3" d="M636.43,379.77a14,14,0,0,0,10,6.93c1.48.29,1.37,1.07,1.4,2.05.1,4.73-.22,4.93-4.84,2.94C637.57,389.37,635.08,385.1,636.43,379.77Z" transform="translate(-626.72 -365.75)"/><path class="cls-4" d="M657.68,390.83c0-1.89,0-3.47,0-5a1.33,1.33,0,0,1,.65-1.2,26.23,26.23,0,0,0,3-2.21,28.27,28.27,0,0,0,2.34-2.79C665.28,383.82,663.07,388.15,657.68,390.83Z" transform="translate(-626.72 -365.75)"/><path class="cls-2" d="M633.47,376.76c0,1.9,0,3.47,0,5a1.34,1.34,0,0,1-.66,1.2,28.73,28.73,0,0,0-3,2.21A29.48,29.48,0,0,0,627.5,388C625.87,383.77,628.08,379.45,633.47,376.76Z" transform="translate(-626.72 -365.75)"/><path class="cls-2" d="M655,388.1a14,14,0,0,0-10-6.92c-1.48-.29-1.37-1.08-1.4-2.06-.1-4.72.22-4.93,4.84-2.94C653.82,378.5,656.31,382.77,655,388.1Z" transform="translate(-626.72 -365.75)"/><text class="cls-5" transform="translate(40.5 20.58) scale(1.06 1)">OFF-SITE</text><text class="cls-6" transform="translate(34.98 29.85) scale(1.06 1)">Professional Services</text></svg>